# xmcd CD database file
#
# Track frame offsets:
#	150
#	14320
#	29634
#	42482
#	56922
#	73569
#	89315
#	101128
#	119152
#	131525
#	146418
#	160734
#	176214
#	189139
#	203692
#	218013
#	230940
#
# Disc length: 3309 seconds
#
# Revision: 1
# Processed by: cddbd v1.4PL0 Copyright (c) Steve Scherf et al.
# Submitted via: CDex 1.50Beta7
#
DISCID=fe0ceb11
DTITLE=Vários - Bailão dos Cafajestes 2001
DYEAR=2001
DGENRE=Sertanejo
TTITLE0=Daniel - Carro e Mulher 
TTITLE1=Teodoro and Sampaio - A Solteirona 
TTITLE2=Guilherme and Santiago - Ta no pé, Ta na bota 
TTITLE3=Juliano and Cesar - A Malvada 
TTITLE4=Marcos and Fernando - A Sogra
TTITLE5=Sérgio and Serginho - No Cano Da Bicicleta
TTITLE6=Ataíde and Alexandre - Estrada do Amor 
TTITLE7=Marquinhos M. and Marcel - O Gambá 
TTITLE8=Henrique and Hernane - Carminha 
TTITLE9=Gian e Giovanni - Sete Dias 
TTITLE10=Milionário and José Rico - Tô De Olho
TTITLE11=Silvio and Robson - A Coisa
TTITLE12=Chico Rey and Paraná - Laçada Certeira
TTITLE13=Antônio C. and Renato - Maria Xoxó 
TTITLE14=Rick and Renner - Marcas de Batom  
TTITLE15=Bruno and Marrone - Coisinha Bela  
TTITLE16=Gino and Geno - Lorota
EXTD=YEAR: 2001
EXTT0=
EXTT1=
EXTT2=
EXTT3=
EXTT4=
EXTT5=
EXTT6=
EXTT7=
EXTT8=
EXTT9=
EXTT10=
EXTT11=
EXTT12=
EXTT13=
EXTT14=
EXTT15=
EXTT16=
PLAYORDER=
